<?xml version="1.0" encoding="UTF-8"?>
<!DOCTYPE svg PUBLIC "-//W3C//DTD SVG 1.1//EN" "http://www.w3.org/Graphics/SVG/1.1/DTD/svg11.dtd">
<!-- Creator: CorelDRAW -->
<svg xmlns="http://www.w3.org/2000/svg" xml:space="preserve" width="215.9mm" height="279.4mm" version="1.1" style="shape-rendering:geometricPrecision; text-rendering:geometricPrecision; image-rendering:optimizeQuality; fill-rule:evenodd; clip-rule:evenodd"
viewBox="0 0 21590 27940"
 xmlns:xlink="http://www.w3.org/1999/xlink"
 xmlns:xodm="http://www.corel.com/coreldraw/odm/2003">
 <defs>
  <style type="text/css">
   <![CDATA[
    .fil0 {fill:#FDC521;fill-rule:nonzero}
    .fil1 {fill:#C22729;fill-rule:nonzero}
   ]]>
  </style>
 </defs>
 <g id="Capa_x0020_1">
  <metadata id="CorelCorpID_0Corel-Layer"/>
  <path class="fil0" d="M10832.62 4133.48c5635.03,0 10203.15,4568.1 10203.15,10203.13 0,5635.03 -4568.12,10203.13 -10203.15,10203.13 -5635.03,0 -10203.13,-4568.1 -10203.13,-10203.13 0,-5635.03 4568.1,-10203.13 10203.13,-10203.13z"/>
  <g id="_105553216900352">
   <path class="fil1" d="M10407.91 13147.67c-676.05,200.3 -237.89,-776.18 -663.53,-651.02 -425.67,125.2 -338.03,-563.35 -338.03,-563.35 -1064.13,838.78 -1915.44,2178.35 -1677.59,3843.45 400.63,2779.32 3530.46,4306.67 6021.82,2053.17 0,0 -4056.27,1502.3 -4657.22,-2215.94 0,0 1289.5,3117.32 4569.58,1439.72 0,0 -2741.75,575.89 -3092.3,-1039.07 0,0 1276.99,788.7 1852.88,625.94 0,0 -1452.23,-513.28 -1414.7,-2428.78 12.54,-550.84 175.27,-951.46 400.66,-1251.93 -613.49,375.6 -325.53,-12.51 -1001.57,187.81z"/>
   <path class="fil1" d="M12260.78 11820.61c-137.72,0 -237.89,-112.66 -237.89,-237.86 0,-137.71 112.69,-237.89 237.89,-237.89 125.2,0 237.88,112.69 237.88,237.89 0,125.2 -112.68,237.86 -237.88,237.86zm525.82 363.05c212.84,-12.5 1114.22,25.06 1114.22,25.06l-713.61 -751.17c0,0 500.78,-1014.07 -262.9,-1752.7 -751.17,-738.66 -1477.28,-1251.94 -1514.84,-1076.66 -37.57,175.27 563.37,676.04 413.16,788.69 -150.26,112.7 -1014.08,-463.2 -1014.08,-463.2 0,0 -388.11,187.79 87.64,751.17 463.2,550.84 37.53,538.33 -375.6,225.35 -400.63,-312.99 -1051.61,-500.8 -538.33,175.27 513.3,676.04 463.23,876.34 -150.22,751.17 -613.46,-125.2 -863.86,-938.98 -1089.21,-625.97 -262.91,363.06 588.43,1840.34 1189.35,1514.84 600.95,-325.52 1327.06,-1389.67 2391.18,-888.87 0,0 187.82,275.41 -300.44,275.41 -488.25,0 -926.44,438.19 -964.01,763.68 -37.56,325.5 438.19,388.12 538.33,1101.72 12.52,50.07 75.13,2516.38 1302.01,1990.56 1239.43,-538.3 -112.65,-2153.33 -162.73,-2253.5 -37.56,-112.66 -150.22,-538.3 50.08,-550.85z"/>
   <path class="fil1" d="M9978.21 13294.28c-776.46,230.1 -273.2,-891.5 -762.08,-747.71 -488.88,143.8 -388.24,-647.05 -388.24,-647.05 -1222.23,963.38 -2199.99,2501.94 -1926.79,4414.37 460.12,3192.15 4054.91,4946.4 6916.34,2358.18 0,0 -4658.84,1725.5 -5349.02,-2545.12 0,0 1481.03,3580.41 5248.34,1653.62 0,0 -3149.02,661.4 -3551.61,-1193.47 0,0 1466.68,905.88 2128.09,718.94 0,0 -1667.97,-589.56 -1624.82,-2789.53 14.38,-632.7 201.29,-1092.82 460.12,-1437.9 -704.56,431.38 -373.82,-14.39 -1150.33,215.67z"/>
   <path class="fil1" d="M12106.32 11770.11c-158.17,0 -273.2,-129.41 -273.2,-273.21 0,-158.17 129.41,-273.2 273.2,-273.2 143.76,0 273.21,129.41 273.21,273.2 0,143.8 -129.45,273.21 -273.21,273.21zm603.92 416.99c244.44,-14.37 1279.73,28.77 1279.73,28.77l-819.62 -862.76c0,0 575.17,-1164.7 -301.94,-2013.05 -862.76,-848.38 -1696.73,-1437.91 -1739.88,-1236.62 -43.15,201.33 647.06,776.47 474.53,905.88 -172.55,129.41 -1164.7,-532 -1164.7,-532 0,0 -445.77,215.67 100.64,862.74 532,632.67 43.15,618.29 -431.35,258.82 -460.17,-359.51 -1207.84,-575.18 -618.32,201.29 589.56,776.47 532.03,1006.56 -172.56,862.76 -704.56,-143.79 -992.15,-1078.43 -1250.97,-718.96 -301.94,416.99 675.79,2113.73 1366,1739.88 690.2,-373.89 1524.21,-1596.09 2746.44,-1020.92 0,0 215.68,316.32 -345.12,316.32 -560.77,0 -1064.02,503.27 -1107.17,877.12 -43.15,373.88 503.26,445.76 618.29,1265.39 14.38,57.49 86.27,2890.17 1495.41,2286.26 1423.52,-618.3 -129.41,-2473.21 -186.91,-2588.24 -43.15,-129.41 -172.56,-618.29 57.5,-632.68z"/>
  </g>
 </g>
</svg>
